<?xml version="1.0" standalone="no"?>
<!DOCTYPE svg PUBLIC "-//W3C//DTD SVG 20010904//EN"
 "http://www.w3.org/TR/2001/REC-SVG-20010904/DTD/svg10.dtd">
<svg version="1.0" xmlns="http://www.w3.org/2000/svg"
 width="2816.000000pt" height="1536.000000pt" viewBox="0 0 2816.000000 1536.000000"
 preserveAspectRatio="xMidYMid meet">
<metadata>
Created by potrace 1.16, written by Peter Selinger 2001-2019
</metadata>
<g transform="translate(0.000000,1536.000000) scale(0.100000,-0.100000)"
fill="#000000" stroke="none">
<path d="M10843 11551 c-59 -49 -129 -120 -105 -107 6 4 12 2 12 -4 0 -6 -8
-9 -18 -6 -14 5 -48 -24 -138 -116 -156 -161 -244 -267 -338 -408 -217 -326
-337 -674 -364 -1060 -14 -193 15 -482 63 -640 8 -25 28 -92 45 -150 33 -109
133 -321 196 -416 41 -61 60 -78 52 -46 -8 30 9 18 29 -21 15 -30 15 -31 0
-18 -32 26 -17 -5 27 -57 24 -28 47 -48 51 -44 5 4 5 2 2 -4 -15 -26 217 -239
358 -329 121 -78 283 -155 385 -183 140 -40 215 -50 400 -57 85 -4 198 -12
250 -19 52 -7 115 -11 139 -8 27 3 41 1 38 -5 -4 -6 -18 -8 -32 -5 -14 2 -25
2 -25 0 0 -3 31 -13 69 -22 169 -41 344 -126 518 -252 101 -73 273 -249 322
-329 11 -18 12 -17 7 10 -44 250 -21 513 70 791 19 59 34 108 34 110 0 2 -26
20 -57 41 -32 20 -68 46 -80 57 -13 11 -23 15 -23 9 0 -6 6 -14 13 -16 7 -3 5
-6 -5 -6 -11 -1 -18 6 -18 18 0 13 -15 27 -47 43 -27 13 -50 26 -53 29 -8 10
-128 69 -140 69 -6 0 -8 -4 -5 -10 8 -13 -5 -13 -25 0 -12 8 -12 10 -1 10 8 0
12 2 10 4 -3 3 -21 1 -42 -3 -21 -5 -35 -5 -31 0 5 9 -8 13 -38 10 -10 -1 -18
3 -18 8 0 14 45 14 71 1 10 -6 19 -7 19 -2 0 14 -150 63 -150 49 0 -7 -5 -4
-11 6 -5 9 -15 17 -21 17 -7 0 -7 -4 1 -13 6 -8 8 -17 4 -20 -10 -11 -48 -8
-59 3 -7 7 -19 8 -36 1 -17 -6 -29 -6 -36 1 -8 8 -19 8 -34 2 -26 -12 -77 -12
-95 -1 -9 6 -13 2 -13 -12 0 -12 -5 -21 -11 -21 -7 0 -9 10 -7 25 4 19 1 25
-12 25 -10 0 -23 -7 -30 -15 -11 -13 -10 -14 4 -9 9 3 16 1 16 -5 0 -18 38
-51 44 -38 3 9 8 8 15 -3 8 -11 7 -16 -4 -18 -7 -2 -16 -11 -18 -20 -4 -15 -5
-15 -6 1 0 9 -8 17 -17 17 -25 0 -11 -24 24 -39 18 -8 32 -18 32 -22 0 -14
-44 0 -53 16 -4 8 -12 13 -18 10 -5 -4 -16 1 -25 10 -15 15 -18 14 -31 -5 -12
-17 -13 -24 -4 -33 9 -9 11 -7 6 8 -5 15 -4 17 3 6 6 -8 8 -20 5 -26 -3 -9 6
-12 29 -9 31 3 31 2 10 -9 -18 -8 -28 -8 -44 2 -11 7 -35 14 -55 17 -35 4 -81
25 -117 54 -14 10 -17 11 -12 2 5 -8 -10 -2 -32 12 -22 14 -42 22 -45 19 -3
-3 -11 -2 -17 2 -9 6 -9 10 1 16 11 7 11 9 2 10 -28 3 -32 4 -39 12 -4 4 -16
7 -26 7 -10 0 -18 4 -18 9 0 5 -8 12 -17 15 -14 4 -14 4 2 3 11 -1 25 2 32 6
6 4 18 0 27 -9 16 -15 41 -11 31 6 -3 5 14 8 37 8 24 0 70 1 103 2 l60 3 -75
8 c-41 4 -122 8 -180 7 -165 0 -295 20 -385 61 -11 5 -29 12 -40 16 l-20 7 20
8 c28 12 43 12 25 0 -12 -8 -11 -10 6 -10 22 0 79 39 57 40 -6 0 -13 -6 -15
-12 -3 -9 -9 -8 -22 5 -10 9 -29 20 -44 24 -31 8 -53 27 -50 44 2 6 -3 14 -11
17 -9 3 -12 0 -9 -10 4 -8 -2 -20 -13 -26 -16 -10 -21 -10 -26 3 -3 9 -12 14
-20 11 -8 -3 -11 -1 -8 4 11 17 -19 50 -35 39 -22 -13 -33 -11 -26 7 3 9 -1
25 -9 37 -13 18 -15 19 -21 4 -8 -23 -44 -22 -45 1 0 9 -3 12 -6 5 -3 -8 -18
3 -41 27 -52 54 -64 70 -56 70 4 0 -9 16 -30 36 -20 19 -33 40 -30 46 5 7 2 8
-6 3 -10 -6 -12 -1 -8 19 4 21 1 26 -14 26 -11 0 -16 5 -13 10 3 6 1 10 -4 10
-6 0 -11 7 -11 17 0 9 3 14 6 10 9 -9 34 19 34 37 0 8 -4 18 -10 21 -9 5 -12
-1 -9 -21 1 -9 -23 -24 -38 -24 -7 0 -13 8 -13 18 0 13 2 14 9 3 7 -11 11 -10
19 5 13 26 5 44 -21 44 -20 1 -20 2 -5 11 17 9 17 12 2 34 -9 14 -13 25 -9 25
4 0 0 11 -9 25 -18 28 -21 39 -6 30 6 -3 10 -1 10 4 0 6 -7 11 -16 11 -8 0
-12 5 -9 10 3 6 16 10 28 10 20 1 21 1 4 11 -20 12 -48 -4 -46 -25 3 -26 -2
-35 -21 -33 -11 1 -20 5 -20 10 0 5 7 7 15 3 9 -3 15 0 15 9 0 10 -6 12 -17 8
-16 -6 -16 -5 -4 11 12 14 12 19 2 26 -17 10 -5 30 18 30 10 0 21 9 24 20 4
15 1 21 -11 19 -32 -3 -42 1 -42 16 0 18 11 19 29 3 11 -10 13 -10 7 0 -4 6
-2 12 3 12 6 0 11 5 11 11 0 6 -6 9 -14 6 -8 -3 -22 1 -33 10 -14 11 -14 14
-2 10 11 -4 21 6 33 29 19 41 19 44 5 44 -5 0 -7 -6 -4 -12 4 -7 -3 -2 -15 12
-12 14 -19 19 -15 13 4 -9 -2 -13 -19 -13 -14 0 -26 5 -26 11 0 5 4 8 9 5 29
-18 8 55 -26 92 -21 22 -15 24 12 5 13 -10 25 -24 25 -30 0 -7 7 -13 16 -13 8
0 13 4 9 9 -3 5 -1 12 5 16 5 3 10 1 10 -4 0 -6 7 -11 15 -11 18 0 20 16 3 23
-10 4 -10 6 0 6 23 2 12 16 -12 16 -13 0 -22 -3 -20 -7 10 -16 -15 -16 -29 0
-15 16 -17 21 -17 39 0 3 -11 -4 -25 -17 -13 -12 -21 -28 -18 -34 4 -6 0 -5
-9 2 -13 11 -17 9 -22 -13 -4 -14 -10 -24 -15 -21 -4 3 -8 -1 -8 -10 0 -8 7
-12 16 -10 9 2 25 7 37 10 14 4 21 2 21 -8 0 -9 -4 -13 -9 -10 -4 3 -8 0 -8
-6 0 -8 -6 -8 -20 0 -14 7 -20 7 -20 0 0 -17 5 -25 13 -22 4 1 6 -2 5 -7 -2
-5 6 -17 17 -26 11 -9 14 -13 6 -9 -7 4 -23 7 -34 8 -38 2 -60 116 -21 116 8
0 14 5 14 10 0 6 -4 10 -9 10 -6 0 -13 -4 -16 -10 -3 -5 -10 -10 -16 -10 -14
0 -11 28 4 33 7 3 5 6 -5 6 -13 1 -18 10 -19 29 0 15 -2 38 -4 52 -2 14 -1 19
1 13 6 -15 44 -18 44 -4 0 6 -4 12 -8 15 -5 3 -7 19 -4 37 4 30 3 31 -20 26
-25 -7 -26 -5 -37 69 -27 185 8 569 70 764 42 131 152 373 221 485 55 88 196
299 215 320 41 45 104 125 99 125 -3 0 -31 -22 -63 -49z"/>
<path d="M11957 11402 c-63 -132 -113 -278 -156 -462 -35 -147 -64 -355 -59
-424 l3 -48 60 -23 c126 -47 300 -153 387 -236 135 -127 237 -234 296 -309 37
-47 77 -96 90 -110 13 -14 32 -40 43 -57 33 -53 31 -38 -7 45 -87 186 -154
470 -154 646 0 35 -5 88 -10 117 -14 72 -14 287 0 413 11 96 36 210 66 304 16
50 17 52 5 52 -5 0 -12 -15 -16 -32 -4 -18 -9 -36 -10 -40 -1 -5 -3 -13 -4
-19 0 -5 -6 -7 -11 -4 -6 4 -9 1 -8 -7 2 -7 -6 -13 -17 -13 -15 0 -19 6 -18
23 2 13 -1 21 -6 18 -5 -4 -16 -3 -25 0 -14 5 -14 9 -4 23 12 14 11 15 -5 2
-14 -11 -21 -11 -29 -3 -18 18 -38 14 -38 -5 -1 -16 -2 -16 -16 2 -15 19 -16
19 -29 2 -7 -10 -16 -14 -19 -9 -3 6 1 12 9 16 8 3 15 10 15 15 0 14 -30 7
-41 -10 -5 -8 -9 -10 -9 -5 0 5 7 18 17 28 15 17 15 18 -11 18 -36 0 -89 28
-80 42 5 7 11 6 19 -6 7 -9 22 -19 34 -21 18 -3 20 -1 11 16 -9 16 -7 21 15
29 14 5 25 12 25 14 0 5 -27 -2 -45 -13 -19 -11 -39 -10 -54 2 -11 9 -13 9 -8
0 5 -7 -1 -14 -15 -19 -13 -4 -24 -2 -26 5 -2 6 -15 11 -28 11 -13 0 -24 5
-24 10 0 17 52 11 66 -7 14 -19 14 -20 14 25 0 4 -4 7 -9 7 -5 0 -13 3 -17 8
-13 12 -44 8 -50 -8 -4 -8 -10 -12 -15 -9 -5 3 -9 2 -8 -3 5 -29 -1 -36 -19
-20 -15 14 -19 15 -19 2 0 -8 4 -12 9 -9 4 3 8 0 8 -5 0 -6 6 -11 14 -11 8 0
17 -4 21 -9 3 -5 -9 -9 -28 -8 -21 1 -33 7 -34 17 0 8 -3 34 -7 58 -4 30 -2
52 10 73 8 17 14 33 12 35 -3 2 -30 -49 -61 -114z"/>
<path d="M11170 10505 c-111 -18 -212 -49 -330 -99 l-105 -44 -42 -83 c-131
-261 -148 -657 -41 -959 22 -63 40 -128 40 -145 0 -23 1 -26 7 -11 12 32 53
-58 56 -124 4 -79 4 -80 13 -80 5 0 6 20 2 45 -8 52 3 58 26 14 14 -28 104
-127 104 -114 0 2 -14 28 -32 56 -65 106 -103 315 -78 434 7 33 21 78 32 100
22 43 124 175 136 175 4 0 19 11 33 24 14 13 35 28 47 35 14 7 19 17 16 29 -4
12 -3 13 3 4 7 -10 20 -8 61 9 29 12 51 24 48 26 -2 2 -21 -3 -41 -11 -43 -18
-59 -20 -50 -7 6 10 89 52 143 71 17 7 32 17 32 22 0 5 5 6 12 2 6 -4 8 -3 4
4 -3 5 0 12 6 15 8 3 4 8 -10 14 -22 8 -22 10 -7 23 14 12 18 12 26 -1 7 -11
9 -11 9 -1 0 7 -7 21 -16 29 -14 15 -14 17 1 25 10 6 14 16 10 29 -4 11 -2 19
4 19 6 0 11 5 11 11 0 5 -6 7 -12 3 -7 -4 -4 3 7 15 11 12 15 22 10 21 -19 -4
-55 12 -49 21 3 5 10 7 16 3 13 -8 7 79 -7 88 -6 5 -2 8 9 8 15 0 16 3 6 15
-10 12 -10 15 4 15 9 0 16 4 16 9 0 6 -9 8 -19 6 -17 -3 -20 1 -17 33 1 20 8
47 15 60 12 22 11 23 -9 12 -38 -20 -76 10 -45 37 4 4 6 3 2 -2 -3 -6 -2 -17
4 -25 7 -12 9 -11 9 6 0 15 9 24 33 31 l32 10 -30 13 c-17 7 -24 14 -17 17 6
3 10 9 7 13 -3 5 -11 7 -18 4 -7 -2 -21 4 -31 15 -17 19 -17 20 21 30 21 6 49
12 63 15 14 2 7 3 -15 4 -22 0 -74 -6 -115 -13z"/>
<path d="M11693 10459 c-5 -5 -37 -10 -70 -10 -55 -1 -60 -2 -56 -20 6 -21 14
-24 29 -10 5 5 22 7 39 4 26 -5 27 -7 10 -14 -19 -7 -19 -8 1 -8 25 -1 37 -24
21 -40 -8 -8 -8 -14 1 -23 15 -15 16 -48 2 -48 -5 0 -10 -8 -10 -17 0 -15 2
-16 10 -3 13 21 19 9 9 -19 -6 -14 -15 -21 -23 -18 -8 3 -17 -1 -20 -9 -3 -8
1 -14 9 -14 8 0 15 -6 15 -14 0 -8 6 -16 12 -18 10 -4 8 -9 -3 -21 -9 -9 -19
-13 -23 -10 -16 16 -4 -17 14 -37 22 -25 26 -35 10 -25 -14 9 -13 -21 2 -44 9
-15 9 -23 -2 -36 -15 -19 -21 -55 -8 -55 4 0 -1 -15 -12 -34 -16 -29 -17 -39
-7 -65 6 -17 17 -33 25 -36 8 -3 10 0 6 6 -4 7 -1 10 7 7 8 -3 13 -12 11 -22
-2 -9 1 -16 6 -16 6 0 12 -7 15 -14 4 -10 1 -13 -9 -9 -7 3 -14 8 -14 12 0 13
-49 31 -55 21 -6 -9 -3 -11 43 -36 l27 -15 -35 6 c-32 6 -30 4 27 -32 65 -40
148 -114 196 -173 16 -19 24 -26 18 -14 -25 51 -97 285 -120 389 -22 101 -50
333 -53 437 -3 90 -6 108 -18 108 -9 0 -21 -5 -27 -11z"/>
<path d="M16713 10437 l-102 -10 0 -91 c2 -175 -37 -423 -90 -582 -16 -46 -26
-84 -22 -84 3 1 44 9 91 20 235 52 282 60 365 66 79 6 159 0 305 -22 33 -5 34
-4 16 10 -11 9 -34 16 -52 16 -18 0 -35 4 -38 9 -8 13 134 5 147 -8 8 -8 6
-11 -6 -11 -9 0 -17 -7 -17 -15 0 -20 5 -19 35 9 22 20 23 25 11 36 -9 6 -21
8 -27 4 -9 -5 -10 -2 -6 9 3 10 2 17 -3 17 -6 0 -10 5 -10 11 0 6 10 9 23 7
12 -2 21 -9 20 -16 -2 -6 2 -12 7 -12 13 0 13 17 0 25 -14 9 -12 26 3 24 20
-3 50 13 37 21 -6 3 -8 14 -4 24 5 14 9 15 15 4 7 -10 9 -11 9 0 0 7 4 11 9 7
16 -9 32 30 19 43 -9 9 -9 12 1 12 7 0 9 5 6 10 -4 6 -11 8 -16 5 -5 -4 -9 -1
-9 4 0 14 6 14 32 0 16 -9 18 -13 7 -20 -7 -4 -10 -12 -5 -16 4 -4 13 0 20 10
7 9 21 17 31 17 13 0 16 6 13 24 -6 29 15 42 32 21 13 -16 43 -8 37 10 -3 6 1
12 9 13 8 1 20 3 27 4 7 1 14 10 14 20 2 17 -8 18 -121 18 -149 0 -265 -19
-400 -65 -55 -19 -102 -35 -104 -35 -3 0 -2 14 0 30 3 17 1 33 -4 36 -4 3 -8
16 -8 29 0 17 -4 23 -14 19 -8 -3 -17 0 -22 7 -5 9 -2 10 9 6 10 -3 17 -2 17
4 0 6 6 7 13 3 9 -6 9 -4 -1 8 -11 14 -10 18 10 29 13 7 25 12 28 12 9 -2 -1
21 -16 38 -13 14 -13 17 -1 22 8 3 20 0 26 -6 8 -8 11 -5 11 10 0 12 7 28 15
37 8 8 15 17 15 19 0 11 -32 0 -41 -14 -6 -10 -9 -7 -9 14 0 15 6 30 14 33 10
4 13 16 10 40 -2 19 0 35 6 35 5 1 15 3 20 4 6 1 20 3 33 4 21 2 22 2 3 16
-19 14 -18 15 15 15 25 0 30 3 19 10 -19 12 -320 10 -457 -3z"/>
<path d="M9746 10218 c-9 -12 -13 -33 -11 -47 4 -21 4 -22 -3 -6 -7 16 -15 9
-49 -50 -70 -122 -147 -269 -137 -262 13 8 10 -151 -4 -165 -6 -6 -15 -4 -24
6 -19 19 -32 8 -15 -12 9 -12 9 -16 0 -19 -7 -3 -13 -9 -13 -14 0 -6 5 -7 10
-4 6 3 10 -3 10 -13 0 -16 -5 -19 -22 -14 -17 4 -20 2 -15 -11 3 -9 -1 -21
-10 -29 -15 -11 -16 -11 -10 5 3 9 2 17 -3 17 -6 0 -10 -7 -10 -15 0 -8 -4
-15 -10 -15 -6 0 -6 9 1 26 5 15 7 29 5 32 -3 3 -9 -4 -12 -14 -4 -10 -22 -55
-41 -99 -80 -183 -187 -536 -252 -835 -128 -580 -144 -1208 -45 -1825 31 -194
61 -336 73 -348 5 -5 12 26 16 75 17 200 98 506 190 718 75 174 241 443 337
546 28 30 30 38 38 155 11 152 49 380 96 588 20 86 41 177 46 204 10 44 8 54
-30 150 -76 188 -129 407 -139 579 -3 54 -9 98 -13 98 -4 0 -8 -33 -10 -72 -1
-40 -4 -93 -7 -118 -2 -25 -4 -57 -3 -72 0 -18 -5 -28 -14 -28 -11 0 -14 51
-16 298 -2 349 -2 350 10 371 10 17 9 20 16 -44 2 -16 4 -39 4 -50 1 -11 6
-23 13 -27 9 -5 9 -10 -1 -20 -14 -14 -16 -32 -2 -23 6 3 10 2 10 -4 0 -5 -5
-11 -11 -13 -7 -2 -4 -10 7 -18 16 -14 17 -11 10 65 -10 116 -10 116 -2 168
10 56 23 63 19 10 l-2 -38 10 40 c6 27 6 41 -1 43 -12 4 -14 52 -1 52 5 0 11
-6 14 -12 2 -7 8 5 11 27 4 22 9 50 12 63 6 28 -1 28 -20 0z"/>
<path d="M17390 9703 c0 -3 9 -12 21 -22 24 -19 56 -126 65 -216 13 -128 -32
-306 -112 -447 -44 -78 -58 -113 -27 -68 9 13 29 47 45 74 27 49 28 50 28 20
0 -16 -6 -36 -12 -43 -10 -11 -10 -13 0 -7 8 5 12 -1 12 -18 0 -30 18 -37 48
-18 12 8 25 12 29 8 3 -3 1 -6 -5 -6 -18 0 -14 -29 7 -51 14 -15 26 -19 43
-14 17 5 19 4 8 -4 -11 -7 -6 -10 18 -9 34 1 68 28 45 35 -20 7 -15 20 8 26
16 4 18 3 9 -8 -13 -16 23 -60 55 -67 11 -2 19 -10 18 -16 -4 -15 14 -16 23 0
5 8 10 7 18 -3 6 -8 17 -14 25 -14 10 0 15 -12 15 -35 1 -19 6 -36 11 -37 6
-1 9 5 7 12 -2 10 3 13 13 9 10 -4 12 -10 6 -18 -6 -7 -6 -17 -1 -26 7 -12 12
-12 22 -2 16 16 72 16 62 0 -6 -9 -3 -9 9 0 14 12 19 12 31 -1 8 -8 12 -18 8
-23 -4 -5 1 -2 11 5 14 12 17 11 17 -3 0 -9 5 -16 10 -16 6 0 10 -14 10 -31 0
-17 4 -28 10 -24 6 3 10 18 10 32 0 15 3 23 7 20 10 -10 33 42 33 74 0 20 4
27 14 23 10 -4 22 23 46 98 17 57 36 116 41 132 7 24 4 38 -20 81 -93 164
-227 311 -376 412 -95 64 -224 133 -287 153 -21 6 -38 15 -38 20 0 4 -9 10
-20 13 -11 3 -20 3 -20 0z"/>
<path d="M15360 9270 c0 -6 -37 -48 -82 -94 -46 -45 -113 -115 -149 -154 l-66
-72 71 0 c39 0 132 -7 206 -15 74 -9 219 -18 323 -22 l187 -6 35 39 c19 21 47
56 62 77 22 32 24 40 12 48 -8 5 -19 7 -26 4 -7 -2 -10 2 -7 13 5 14 3 13 -10
-2 -9 -11 -16 -23 -16 -28 0 -4 -5 -8 -11 -8 -6 0 -8 7 -5 16 3 8 2 12 -4 9
-14 -9 -12 39 2 53 9 9 7 12 -9 12 -12 0 -29 7 -37 16 -22 21 -39 8 -32 -25 5
-20 4 -23 -4 -11 -9 11 -13 12 -17 3 -3 -10 -8 -10 -19 1 -19 20 -18 24 9 29
12 2 3 3 -21 2 -41 -2 -74 -15 -39 -15 10 0 17 -5 17 -10 0 -7 -6 -8 -17 -1
-10 5 -26 5 -40 0 -14 -5 -25 -4 -29 2 -3 6 -11 8 -18 6 -6 -3 -20 1 -30 9
-11 7 -22 11 -27 9 -11 -8 -21 13 -13 26 5 8 10 7 16 -4 5 -9 15 -14 23 -11 9
4 15 0 15 -10 0 -9 6 -13 15 -10 8 4 12 10 9 15 -3 5 2 9 10 9 8 0 17 4 20 9
4 5 -3 7 -13 4 -11 -3 -30 2 -42 10 -11 9 -26 14 -33 12 -6 -3 -23 -6 -38 -9
-15 -3 -43 -17 -63 -32 -24 -18 -33 -22 -29 -10 4 9 1 16 -6 16 -7 0 -10 7 -7
15 5 11 1 12 -18 5 -14 -5 -24 -6 -23 -2 1 4 -4 20 -10 35 -15 36 -15 44 1 50
7 3 5 6 -5 6 -10 1 -18 -4 -18 -9z"/>
<path d="M13219 9147 c8 -21 7 -25 -7 -22 -9 1 -23 -2 -29 -8 -9 -6 -18 -5
-28 3 -8 7 -15 9 -15 4 0 -5 -4 -4 -8 1 -4 6 -17 15 -28 22 -19 10 -23 9 -29
-10 -11 -35 -12 -41 -3 -54 7 -8 3 -10 -11 -6 -12 3 -18 9 -15 14 3 5 0 9 -5
9 -12 0 -14 -11 -5 -34 3 -9 11 -13 18 -9 6 4 5 -1 -3 -10 -15 -18 -26 -23
-16 -7 3 6 -4 10 -17 10 -19 0 -20 -2 -8 -11 12 -8 9 -10 -12 -6 -16 2 -28 1
-28 -4 0 -4 10 -9 23 -12 22 -4 22 -4 -3 -14 -28 -12 -54 1 -43 21 3 6 0 5 -8
-2 -12 -12 -11 -16 8 -29 l22 -15 -20 -21 c-11 -12 -15 -23 -9 -25 16 -6 12
-22 -6 -22 -10 0 -14 -5 -10 -15 3 -10 -1 -18 -12 -22 -23 -9 -36 -24 -40 -47
-2 -10 -9 -25 -15 -32 -41 -45 -42 -48 -24 -41 22 8 22 -12 1 -39 -13 -16 -15
-16 -10 -1 3 9 1 17 -4 17 -9 0 -15 -28 -11 -52 0 -3 -12 -5 -28 -3 -16 2 -37
-2 -46 -9 -16 -12 -16 -14 9 -33 21 -17 23 -23 12 -32 -10 -8 -22 -8 -42 -1
-27 9 -28 9 -10 -5 11 -8 28 -15 39 -15 10 0 15 -4 12 -10 -3 -6 4 -10 17 -9
13 0 17 3 11 6 -18 7 -16 23 2 23 8 0 15 6 15 13 0 9 3 8 9 -2 6 -9 16 -11 32
-6 20 7 22 5 13 -6 -19 -23 -13 -50 8 -43 10 3 18 2 17 -3 -3 -19 2 -27 10
-14 7 11 12 10 27 -6 24 -25 28 -44 12 -56 -10 -6 -8 -7 4 -3 10 3 20 1 24 -5
3 -6 13 -8 21 -5 11 4 13 2 9 -9 -3 -8 -2 -15 2 -15 13 0 63 91 56 102 -4 7
-2 8 4 4 7 -4 16 2 21 16 5 13 16 30 25 37 9 7 13 17 10 22 -3 5 -1 9 4 9 14
0 56 63 55 82 -1 10 2 16 7 13 8 -5 30 20 110 122 25 32 74 87 108 122 53 53
61 66 48 73 -9 5 -20 7 -25 3 -5 -3 -12 -1 -16 5 -3 5 -19 10 -35 10 -23 0
-30 5 -35 28 -5 27 -13 34 -83 75 l-32 19 9 -25z"/>
<path d="M14411 8736 c-199 -151 -336 -277 -426 -393 -85 -110 -92 -123 -70
-139 38 -28 328 -81 565 -103 163 -15 437 -24 421 -13 -11 8 -11 11 0 18 10 6
7 10 -11 14 -14 3 -25 12 -25 20 0 8 -8 14 -17 12 -11 -2 -15 3 -13 15 2 10 4
24 4 31 1 8 11 13 24 12 36 -3 49 -1 42 10 -3 5 -13 6 -22 3 -12 -5 -15 -2
-10 10 4 11 1 17 -7 17 -8 0 -16 7 -20 15 -4 10 1 15 16 15 18 0 19 2 7 18
-13 15 -12 16 3 3 10 -7 15 -17 12 -22 -3 -5 0 -9 6 -9 22 0 39 27 38 60 -1
22 5 36 17 43 17 9 18 11 2 16 -15 6 -15 9 -2 34 9 19 10 25 2 20 -7 -4 -5 2
3 12 11 14 12 19 3 22 -7 3 -13 11 -13 19 0 9 5 12 10 9 6 -3 10 -3 11 2 0 4
2 16 4 26 3 15 1 16 -11 6 -12 -10 -13 -9 -8 7 4 10 12 24 18 29 15 14 18 35
5 35 -5 0 -7 5 -4 11 4 6 13 8 20 5 8 -3 11 2 8 13 -7 26 26 35 49 15 10 -10
21 -14 24 -11 12 12 12 57 1 58 -51 3 -74 9 -152 40 -11 4 -37 10 -58 14 -58
9 -36 21 43 22 39 1 74 4 77 7 4 3 -20 6 -53 6 -32 0 -86 4 -119 9 -33 5 -109
12 -170 16 l-110 6 -114 -85z"/>
<path d="M13478 8333 c-2 -27 1 -62 11 -123 15 -93 22 -124 32 -157 6 -18 9
-45 7 -60 -3 -24 0 -28 20 -25 12 2 22 -2 22 -8 0 -6 4 -9 9 -6 5 4 7 -3 4
-14 -9 -33 -20 -33 -53 1 -16 18 -30 29 -30 25 0 -4 -12 6 -26 23 -26 31 -44
33 -44 5 0 -8 3 -13 8 -10 9 5 13 -50 6 -83 -4 -21 -9 -23 -41 -18 -19 4 -44
14 -55 24 -14 12 -37 18 -74 19 -60 0 -63 -5 -38 -55 18 -36 25 -81 13 -81 -4
0 -11 5 -14 10 -7 12 -25 4 -25 -11 0 -5 7 -9 16 -7 10 2 19 -3 22 -11 3 -8 0
-11 -6 -7 -6 3 -13 2 -17 -4 -3 -5 1 -10 9 -10 8 0 18 -5 22 -11 5 -9 -1 -10
-20 -5 -29 7 -31 4 -15 -27 9 -20 9 -20 -4 -4 -15 18 -33 24 -22 8 8 -14 -32
-33 -55 -26 -14 4 -17 2 -14 -12 3 -10 -4 -28 -16 -41 -11 -12 -17 -22 -12
-22 5 0 10 -11 10 -25 0 -14 -4 -25 -9 -25 -5 0 -9 -13 -9 -30 0 -16 -4 -30
-10 -30 -5 0 -10 -5 -10 -11 0 -5 4 -8 8 -5 5 3 9 -1 9 -9 0 -8 -4 -12 -9 -9
-4 3 -8 1 -8 -4 0 -5 10 -14 23 -19 21 -11 21 -11 -8 -12 -58 -2 -65 -5 -65
-22 0 -28 19 -33 28 -8 5 14 11 18 16 11 3 -6 2 -13 -4 -17 -6 -4 -8 -11 -5
-16 9 -13 -19 -11 -33 3 -21 21 -34 -6 -39 -79 -5 -92 -5 -93 -15 -87 -4 3 -8
23 -8 44 0 21 -5 42 -11 46 -9 5 -10 -18 -5 -87 14 -190 35 -296 97 -507 53
-180 68 -275 76 -462 8 -224 -25 -421 -102 -612 l-25 -61 54 59 c90 99 159
183 258 314 98 129 103 136 202 286 84 127 239 403 270 480 l27 66 -27 101
c-14 56 -30 118 -34 137 -4 19 -17 77 -29 127 -11 51 -21 95 -21 98 0 4 -4 4
-9 1 -5 -4 -7 3 -4 14 3 11 2 64 -3 118 -5 69 -9 87 -13 63 -3 -19 -13 -36
-21 -38 -12 -4 -12 -2 -2 5 10 7 9 12 -4 23 -11 9 -15 9 -10 2 4 -7 3 -21 -3
-30 -8 -15 -10 -14 -17 11 -11 44 3 261 24 359 15 73 16 87 4 82 -11 -4 -13 1
-7 22 4 16 11 47 15 69 6 39 52 109 63 98 8 -9 17 29 13 59 -2 15 1 30 5 33 5
3 9 14 9 25 0 13 -4 18 -11 13 -8 -5 -10 1 -7 20 3 14 1 26 -4 26 -5 0 -19 9
-31 20 -12 12 -23 16 -25 10 -2 -5 -8 -10 -13 -10 -4 0 -6 6 -3 13 3 8 -3 20
-12 28 -15 13 -16 11 -9 -11 7 -24 7 -24 -12 -7 -11 9 -23 14 -26 10 -13 -12
-7 13 6 27 10 12 9 12 -6 0 -15 -11 -20 -11 -27 -1 -4 8 -13 10 -20 6 -9 -5
-11 -4 -6 4 9 14 -11 41 -30 41 -8 0 -15 -8 -16 -17z"/>
<path d="M10269 8154 c-365 -266 -679 -701 -813 -1123 -122 -385 -131 -868
-25 -1284 50 -198 171 -478 294 -686 118 -198 333 -449 512 -598 419 -350 967
-541 1488 -520 354 15 706 112 993 275 48 28 74 37 77 29 60 -185 82 -241 125
-326 49 -99 139 -235 148 -226 3 2 -1 11 -8 20 -18 22 -5 31 15 11 17 -16 35
-14 35 5 0 6 -4 8 -9 5 -5 -3 -11 0 -14 7 -4 10 2 13 19 9 18 -3 23 -1 19 9
-3 8 6 19 21 26 22 10 26 9 34 -10 5 -12 9 -16 9 -9 1 7 -3 21 -9 31 -6 13 -5
24 5 37 13 18 14 18 9 -2 -4 -14 0 -23 10 -27 10 -4 13 -1 9 9 -3 7 0 14 6 14
6 0 11 -6 11 -13 0 -7 9 -13 20 -13 13 0 20 7 20 19 0 10 5 15 10 12 9 -6 14
8 11 28 -1 5 3 6 9 2 6 -3 8 -11 5 -16 -4 -5 3 -9 15 -9 14 0 19 4 14 12 -5 8
-2 9 9 5 10 -4 17 -1 17 6 0 8 4 6 10 -3 9 -14 14 -7 11 13 -1 5 3 5 9 2 6 -4
19 0 29 9 11 10 25 14 37 9 17 -6 17 -5 5 10 -11 14 -11 17 1 17 15 0 68 56
68 72 0 5 4 7 9 3 17 -10 24 18 8 30 -18 13 -24 30 -7 20 5 -3 18 -2 28 4 11
6 24 6 33 1 12 -8 12 -13 1 -31 -8 -11 -9 -18 -3 -14 7 3 11 -2 11 -14 0 -22
14 -28 25 -11 3 5 13 7 23 4 9 -3 5 2 -11 11 -25 15 -26 17 -12 32 15 15 15
18 -7 38 -13 12 -28 20 -34 18 -6 -2 -23 1 -38 7 -22 8 -26 13 -17 24 6 7 8
16 4 20 -4 4 1 4 11 0 16 -6 17 -4 7 14 -16 31 -13 51 4 28 8 -11 15 -16 15
-10 -1 17 -27 44 -35 36 -5 -4 -5 -2 -1 5 4 7 -2 30 -13 52 -58 112 -85 326
-57 444 20 84 43 129 96 187 243 263 374 423 555 680 73 102 205 311 205 322
0 4 -5 8 -11 8 -5 0 -7 -4 -4 -10 3 -5 -1 -10 -9 -10 -22 0 -20 17 4 30 11 6
20 18 20 26 0 10 6 14 15 10 12 -4 15 2 14 27 0 18 -3 26 -6 20 -8 -22 -21
-14 -16 10 6 24 33 67 33 53 0 -5 6 -3 14 3 19 16 30 -13 15 -41 -6 -11 -8
-22 -6 -24 3 -3 12 9 21 27 13 26 14 34 4 41 -9 6 -8 8 5 6 11 -2 26 11 43 40
14 23 23 42 20 42 -2 0 -14 -16 -26 -35 -12 -19 -26 -35 -32 -35 -7 0 -7 5 1
13 6 8 8 17 4 20 -3 4 -1 7 5 7 7 0 12 5 12 11 0 5 -4 8 -9 5 -10 -6 -25 24
-16 32 3 3 5 1 5 -5 0 -5 6 -10 13 -10 7 0 13 9 13 19 0 10 -5 18 -11 18 -5 0
-3 4 5 9 8 6 18 7 22 5 4 -3 8 0 8 5 0 6 -4 11 -10 11 -5 0 -10 9 -10 20 0 11
4 20 10 20 5 0 7 -7 4 -15 -4 -8 -1 -15 5 -15 10 0 16 21 12 44 -3 17 10 43
22 44 6 0 21 2 32 4 15 2 20 -2 19 -19 -1 -30 0 -29 24 11 15 25 17 37 9 45
-9 9 -8 14 3 21 13 8 12 10 -3 10 -17 0 -17 2 2 26 12 15 21 33 21 41 0 7 6
16 14 19 13 5 30 44 19 44 -3 0 -19 -15 -35 -32 l-31 -33 26 51 c36 71 80 134
114 164 15 14 22 18 16 10 -19 -21 -16 -35 4 -19 15 12 16 12 10 -3 -3 -10 -1
-20 6 -24 7 -4 9 -4 5 1 -14 15 13 35 33 25 16 -9 21 -4 39 29 11 22 24 42 30
46 11 7 160 204 160 211 0 3 -4 2 -10 -1 -5 -3 -10 -1 -10 5 0 7 6 10 14 7 10
-4 44 28 99 91 196 225 404 410 627 559 158 106 274 158 448 203 57 15 270 50
305 50 56 0 24 19 -85 49 -190 51 -465 99 -668 116 -41 3 -97 8 -123 11 -33 3
-47 1 -42 -6 3 -5 16 -10 28 -11 18 0 16 -3 -10 -15 -18 -8 -33 -19 -33 -25 0
-5 4 -8 8 -5 14 9 33 -10 26 -27 -7 -18 -24 -23 -24 -7 0 6 -7 6 -18 -1 -20
-13 -24 -49 -6 -49 7 0 14 6 16 12 3 9 9 8 21 -3 12 -12 44 -19 115 -24 54 -4
105 -11 113 -16 19 -12 -18 -12 -173 1 -68 5 -258 14 -422 20 l-299 11 -45
-43 c-75 -73 -323 -340 -364 -393 -22 -27 -46 -58 -54 -67 -7 -10 -9 -18 -4
-18 5 0 15 9 22 20 7 11 16 20 21 20 4 0 6 -4 3 -9 -4 -5 0 -12 6 -14 10 -4 9
-8 -2 -16 -13 -9 -12 -11 4 -11 17 0 17 -2 3 -22 -8 -13 -20 -22 -26 -21 -6 2
-8 -3 -5 -10 2 -7 -16 -37 -41 -66 -84 -98 -338 -481 -338 -508 0 -7 -3 -13
-7 -13 -11 0 -81 -103 -139 -205 -29 -49 -81 -137 -116 -194 -36 -57 -62 -107
-60 -111 3 -4 -2 -10 -10 -14 -8 -3 -15 -10 -15 -16 0 -18 39 13 43 35 4 20 4
20 5 0 2 -29 -11 -46 -37 -48 -23 -1 -52 -37 -31 -37 6 0 8 -5 5 -10 -4 -6
-10 -8 -15 -5 -4 3 -52 -57 -106 -133 -54 -75 -113 -156 -132 -179 -21 -26
-31 -47 -26 -55 4 -7 4 -10 0 -6 -4 3 -66 -62 -138 -145 -223 -261 -458 -491
-480 -469 -8 8 -19 7 -39 -4 -33 -17 -37 -10 -11 20 9 11 -5 2 -33 -21 -66
-54 -258 -179 -365 -236 -180 -97 -370 -161 -555 -188 -98 -14 -301 -6 -439
17 l-101 17 -106 -70 c-111 -73 -248 -133 -404 -178 -89 -26 -235 -45 -235
-31 0 5 8 20 19 34 36 51 92 173 108 235 12 47 14 91 10 182 -6 151 -21 187
-125 298 -151 161 -227 267 -309 432 -165 330 -206 729 -113 1102 33 131 38
144 108 281 62 122 88 164 162 257 143 183 302 314 534 440 84 45 88 49 65 58
-216 89 -436 222 -645 394 l-41 33 -64 -46z"/>
<path d="M19049 8129 c-4 -68 -8 -161 -11 -311 -3 -165 -7 -194 -23 -168 -9
15 -25 12 -25 -4 0 -8 -7 -17 -16 -20 -23 -9 -27 -8 -20 9 6 17 -29 22 -39 5
-3 -6 2 -8 12 -5 10 3 8 0 -4 -6 -13 -7 -23 -16 -23 -20 0 -12 38 -21 52 -12
7 4 23 6 35 4 19 -2 22 1 16 16 -6 17 -6 17 10 1 29 -29 23 -35 -40 -40 -19
-2 -4 -13 18 -14 10 -1 26 -2 33 -3 13 -1 14 -33 11 -207 -2 -130 -7 -210 -14
-217 -6 -6 -11 -18 -11 -27 0 -13 1 -13 10 0 6 9 10 10 10 3 0 -14 -28 -30
-50 -29 -8 1 -15 7 -15 14 0 6 -4 11 -10 10 -5 -2 -9 -14 -7 -26 2 -17 -1 -22
-10 -16 -10 5 -10 4 -1 -6 10 -11 16 -10 33 5 17 16 20 16 20 2 0 -9 9 -19 20
-22 22 -7 28 -35 7 -35 -10 0 -15 -35 -7 -60 1 -3 2 -40 2 -82 0 -43 4 -78 9
-78 5 0 9 -10 9 -22 -1 -23 -1 -23 -17 -3 l-16 20 8 -20 c4 -11 8 -25 8 -31 0
-6 6 -11 13 -11 7 0 13 3 12 6 -2 22 3 41 11 37 9 -6 3 -56 -8 -56 -3 0 -7
-21 -7 -45 -1 -25 0 -44 2 -42 6 6 44 190 44 212 0 17 -2 17 -10 5 -7 -11 -9
2 -6 43 2 32 6 61 10 64 3 4 6 11 6 17 0 6 -5 4 -11 -4 -9 -12 -9 -11 -4 5 12
33 23 99 19 107 -3 5 -1 8 5 8 5 0 12 -6 14 -12 4 -10 6 -10 6 0 1 7 -8 22
-19 34 -13 15 -17 26 -10 38 9 17 8 33 -4 62 -4 9 -5 21 -2 27 3 5 1 11 -6 13
-7 3 -8 9 -2 19 13 21 15 44 12 167 -1 43 -6 72 -12 72 -8 0 -8 2 0 8 17 11
24 40 11 45 -9 3 -9 9 0 25 9 14 9 30 3 54 -12 40 -12 40 -2 35 4 -3 7 15 8
39 1 24 -3 41 -7 38 -4 -2 -10 0 -14 6 -3 5 0 10 7 10 11 0 11 2 0 8 -9 6 -10
17 -5 33 4 13 7 40 6 59 -2 19 -5 88 -7 153 -1 64 -6 120 -9 124 -4 3 -7 0 -8
-8z"/>
<path d="M17440 7565 c0 -3 26 -22 58 -41 71 -45 210 -187 297 -302 114 -151
206 -358 250 -562 23 -105 31 -363 15 -502 -38 -352 -193 -679 -447 -942 -107
-111 -127 -145 -142 -241 -13 -85 1 -202 26 -220 10 -8 14 -20 10 -34 -8 -33
47 -176 93 -241 11 -16 20 -31 20 -35 0 -12 -103 7 -225 42 -161 46 -288 101
-413 180 l-105 66 -116 -24 c-227 -46 -482 -28 -708 52 -183 65 -400 195 -542
325 l-74 68 6 -34 c37 -210 43 -547 14 -739 -10 -63 -19 -119 -20 -124 -7 -33
361 -194 516 -226 23 -5 98 -21 167 -36 69 -14 161 -29 205 -33 l80 -7 -125
-75 c-215 -127 -532 -273 -795 -364 -134 -46 -383 -116 -416 -116 -10 0 -39
-26 -65 -57 -143 -177 -373 -384 -559 -504 -85 -55 -297 -161 -377 -189 l-83
-28 234 -1 c725 -3 1333 141 2072 487 343 161 809 463 1062 688 354 315 609
585 849 898 73 95 91 125 68 111 -5 -3 -10 -1 -10 5 0 7 7 10 15 6 20 -7 97
106 89 131 -4 13 -3 15 4 4 7 -10 24 10 67 80 77 124 187 349 181 372 -2 9 -1
15 4 12 17 -10 121 320 150 475 39 213 65 570 42 584 -4 2 -8 -33 -8 -77 -2
-158 -3 -169 -16 -156 -7 6 -14 22 -15 35 -2 13 -4 35 -5 49 -2 14 -6 25 -10
25 -4 0 -6 14 -6 30 1 17 6 30 14 30 7 0 16 5 20 12 5 8 0 9 -17 5 -23 -6 -23
-5 -5 8 25 19 29 44 9 63 -13 14 -13 16 2 25 9 5 20 6 23 2 4 -4 1 -10 -6 -12
-13 -5 -7 -23 9 -23 23 0 5 165 -19 175 -11 4 -12 2 -5 -7 15 -19 21 -77 9
-82 -7 -3 -6 -5 2 -5 15 -1 16 -31 1 -31 -5 0 -7 5 -4 10 3 6 1 10 -4 10 -6 0
-11 14 -11 31 0 23 -4 30 -15 25 -8 -3 -14 -2 -14 2 1 4 1 14 0 22 -1 13 -3
13 -10 0 -6 -8 -7 -18 -4 -22 2 -5 -1 -32 -7 -59 -10 -42 -17 -53 -41 -61 -16
-5 -29 -14 -29 -20 0 -5 -5 -6 -12 -2 -7 4 -8 3 -4 -4 7 -12 36 -5 36 9 0 5 9
9 19 9 16 0 19 -6 16 -41 -2 -23 -10 -46 -17 -51 -10 -7 -10 -8 2 -6 9 2 16
-1 17 -7 1 -5 -7 -10 -17 -9 -11 0 -20 -3 -20 -8 0 -4 6 -8 13 -8 6 0 13 -11
13 -25 2 -23 -4 -29 -23 -22 -5 1 -7 4 -6 7 1 3 -7 6 -17 7 -17 2 -17 0 -2
-27 11 -19 19 -25 24 -17 5 8 12 6 22 -8 18 -23 19 -32 7 -39 -5 -4 -12 0 -14
6 -4 10 -8 10 -15 -1 -5 -7 -14 -11 -20 -7 -6 3 -13 2 -17 -4 -4 -6 -10 -8
-15 -5 -4 3 -10 -2 -14 -10 -7 -18 6 -26 24 -15 12 7 40 -9 40 -23 0 -8 -54
-2 -69 7 -10 6 -16 5 -19 -2 -2 -7 -7 -10 -12 -7 -4 3 -14 -3 -21 -12 -13 -14
-11 -16 14 -11 29 6 37 -6 11 -16 -9 -3 -24 0 -35 8 -17 11 -18 14 -4 19 18 8
20 34 3 40 -10 3 -10 9 0 26 10 18 11 26 1 37 -6 8 -9 17 -5 21 3 3 6 1 6 -5
0 -6 7 -9 15 -6 8 4 15 11 15 16 0 6 7 16 16 23 14 10 14 13 2 26 -7 8 -26 30
-40 49 -22 29 -24 37 -12 48 7 6 19 12 27 12 7 0 22 7 33 15 21 16 8 20 -16 6
-20 -14 -32 -3 -20 19 9 17 7 18 -23 15 l-32 -4 28 22 c15 13 27 26 27 30 0
12 -28 8 -33 -5 -2 -7 -8 -9 -13 -5 -5 5 2 16 14 26 20 15 21 19 9 29 -7 7
-17 8 -21 4 -4 -4 -6 -2 -4 4 2 7 -7 21 -20 32 -12 11 -22 24 -21 28 5 29 -3
44 -23 44 -13 0 -18 -3 -12 -8 6 -4 17 -28 24 -54 8 -26 18 -44 22 -42 18 12
2 -22 -20 -39 -12 -10 -20 -23 -17 -28 4 -5 1 -9 -4 -9 -6 0 -11 8 -11 19 0
10 -7 24 -15 31 -23 19 -20 -7 10 -85 13 -36 22 -65 20 -65 -2 0 3 -28 12 -62
21 -91 22 -94 27 -194 5 -83 3 -95 -16 -119 -14 -18 -17 -30 -11 -36 10 -10 8
-168 -2 -197 -2 -7 0 -23 5 -37 6 -15 6 -26 0 -30 -6 -4 -10 -23 -10 -43 0
-20 -7 -59 -15 -87 l-15 -50 6 60 c32 313 16 511 -61 790 -50 180 -164 424
-258 553 -86 116 -115 152 -176 215 -81 85 -308 277 -326 277 -2 0 -37 23 -77
50 -68 47 -88 57 -88 45z"/>
<path d="M15100 6750 c-19 -27 -80 -113 -135 -192 -114 -162 -435 -681 -502
-810 l-46 -87 31 -158 c18 -87 38 -192 46 -233 8 -41 30 -151 50 -244 19 -92
38 -216 42 -275 16 -274 -64 -572 -216 -803 -61 -92 -222 -257 -305 -313 -33
-22 -62 -43 -65 -47 -5 -6 -112 -65 -180 -99 -19 -9 -98 -34 -175 -54 -239
-64 -396 -59 -720 21 -126 31 -546 187 -730 271 l-140 64 -80 -13 c-101 -16
-456 -16 -585 0 -246 32 -565 124 -741 212 -33 17 -63 30 -65 28 -6 -6 262
-249 361 -327 244 -193 621 -430 905 -568 608 -297 1267 -467 1645 -424 461
53 832 218 1159 516 309 282 519 662 602 1091 25 127 28 160 28 384 1 159 -4
280 -13 345 -14 101 -29 161 -30 121 -1 -15 -4 -16 -16 -6 -10 8 -13 26 -10
63 3 36 1 46 -5 32 -5 -11 -9 -36 -9 -56 -1 -45 -10 -54 -28 -29 -8 11 -20 17
-31 14 -16 -5 -16 -4 1 9 10 8 15 21 11 31 -4 9 -1 16 6 16 8 0 10 -10 7 -27
-5 -25 -4 -26 8 -9 17 23 4 62 -19 58 -9 -2 -23 1 -31 5 -13 8 -12 14 9 41 20
28 23 41 19 94 -2 34 -6 65 -8 69 -3 4 -7 29 -10 56 -5 44 -4 47 10 29 20 -26
20 -5 0 60 -27 84 -73 334 -86 459 -19 188 -2 379 56 644 9 41 18 78 21 83 3
4 4 8 2 8 -2 0 -19 -22 -38 -50z"/>
</g>
</svg>
